<?xml version="1.0" encoding="UTF-8" ?>
<!DOCTYPE svg PUBLIC "-//W3C//DTD SVG 1.1//EN" "http://www.w3.org/Graphics/SVG/1.1/DTD/svg11.dtd">
<svg width="300pt" height="198pt" viewBox="0 0 300 198" version="1.1" xmlns="http://www.w3.org/2000/svg">
<g id="#85aaf7ff">
<path fill="#85aaf7" opacity="1.00" d=" M 149.49 0.00 L 149.93 0.00 C 167.66 10.77 186.00 20.53 203.81 31.15 C 205.20 32.19 207.48 32.94 207.35 35.04 C 207.54 54.02 207.33 73.02 207.45 92.00 C 207.45 94.80 207.52 97.64 206.91 100.40 L 206.18 100.83 C 193.64 93.24 180.76 86.24 168.09 78.88 C 162.45 75.51 156.46 72.69 151.16 68.77 C 146.63 65.12 141.48 62.40 136.45 59.53 C 121.90 50.92 107.18 42.60 92.70 33.89 C 92.92 33.58 93.36 32.98 93.59 32.67 C 111.83 21.16 131.14 11.34 149.49 0.00 Z" />
</g>
<g id="#76bafaff">
<path fill="#76bafa" opacity="1.00" d=" M 92.70 33.89 C 107.18 42.60 121.90 50.92 136.45 59.53 C 141.48 62.40 146.63 65.12 151.16 68.77 C 135.87 77.19 120.74 85.92 105.54 94.50 C 101.84 96.50 97.60 98.10 95.44 101.98 C 94.63 101.55 93.83 101.11 93.02 100.69 C 92.37 78.44 92.99 56.15 92.70 33.89 Z" />
</g>
<g id="#7ac6fdff">
<path fill="#7ac6fd" opacity="1.00" d=" M 105.54 94.50 C 120.74 85.92 135.87 77.19 151.16 68.77 C 156.46 72.69 162.45 75.51 168.09 78.88 C 180.76 86.24 193.64 93.24 206.18 100.83 C 187.35 111.50 168.60 122.30 149.88 133.17 C 131.66 122.90 113.62 112.32 95.44 101.98 C 97.60 98.10 101.84 96.50 105.54 94.50 Z" />
</g>
<g id="#ffffffff">
<path fill="#ffffff" opacity="1.00" d=" M 0.00 153.02 C 9.93 153.07 19.85 152.89 29.78 153.09 C 29.78 153.84 29.78 155.35 29.78 156.11 C 25.32 156.32 20.86 156.12 16.40 156.34 C 15.84 169.94 16.53 183.57 16.05 197.17 C 15.05 196.76 14.07 196.30 13.13 195.79 C 12.95 182.60 13.20 169.41 13.01 156.22 C 8.67 156.23 4.34 156.23 0.00 156.21 L 0.00 153.02 Z" />
<path fill="#ffffff" opacity="1.00" d=" M 62.99 152.79 C 64.27 153.11 66.38 153.09 65.98 155.04 C 65.95 168.71 66.14 182.40 65.90 196.07 C 65.15 196.22 63.64 196.53 62.88 196.68 C 62.89 182.05 62.67 167.41 62.99 152.79 Z" />
<path fill="#ffffff" opacity="1.00" d=" M 75.95 153.01 C 76.68 152.92 78.15 152.75 78.88 152.67 C 78.80 167.43 78.89 182.19 78.84 196.95 C 78.12 196.88 76.68 196.74 75.96 196.67 C 75.62 182.13 75.66 167.55 75.95 153.01 Z" />
<path fill="#ffffff" opacity="1.00" d=" M 200.06 152.99 C 200.79 152.99 202.24 152.98 202.96 152.97 C 204.73 155.75 205.86 158.85 207.15 161.86 C 212.01 173.32 216.92 184.76 221.82 196.20 C 220.70 196.45 219.57 196.65 218.43 196.83 C 216.75 193.28 215.25 189.64 213.80 185.99 C 205.64 185.95 197.47 185.79 189.32 186.09 C 187.82 189.71 186.43 193.38 184.71 196.90 C 182.61 198.32 181.15 195.16 182.50 193.57 C 188.44 180.09 193.71 166.28 200.06 152.99 M 190.86 182.63 C 197.99 182.62 205.12 182.62 212.26 182.64 C 208.83 174.20 205.29 165.81 201.64 157.48 C 197.87 165.79 194.41 174.23 190.86 182.63 Z" />
<path fill="#ffffff" opacity="1.00" d=" M 230.82 152.98 C 237.74 153.54 245.03 151.84 251.69 154.28 C 262.41 158.48 263.17 175.76 253.22 181.20 C 247.35 184.50 240.35 182.83 233.95 183.22 C 233.89 187.52 233.89 191.83 233.93 196.14 C 233.05 196.41 232.16 196.64 231.25 196.81 C 230.12 195.84 230.40 194.34 230.37 193.03 C 230.41 181.01 230.39 169.00 230.38 156.98 C 230.37 155.63 230.56 154.30 230.82 152.98 M 233.95 156.20 C 233.89 164.13 233.86 172.07 233.96 180.00 C 238.31 179.96 242.66 180.19 247.00 179.89 C 251.21 179.47 255.23 176.56 256.21 172.32 C 257.58 167.15 256.49 160.32 251.24 157.75 C 245.88 155.10 239.68 156.60 233.95 156.20 Z" />
<path fill="#ffffff" opacity="1.00" d=" M 269.97 153.06 C 276.90 153.43 284.16 151.93 290.85 154.19 C 301.46 158.02 302.68 174.53 293.57 180.63 C 287.63 184.69 280.07 182.79 273.35 183.23 C 272.81 187.76 274.69 192.98 272.03 196.98 C 271.51 196.72 270.48 196.19 269.96 195.92 C 269.87 181.64 269.85 167.35 269.97 153.06 M 273.35 156.21 C 273.34 164.12 273.40 172.04 273.31 179.95 C 279.05 179.68 285.21 181.11 290.61 178.62 C 296.99 175.39 297.52 166.38 294.30 160.77 C 289.29 154.34 280.37 156.60 273.35 156.21 Z" />
<path fill="#ffffff" opacity="1.00" d=" M 30.71 175.80 C 35.80 168.88 47.97 169.23 52.50 176.58 C 54.05 179.05 54.45 182.05 54.20 184.92 C 46.61 184.97 39.02 184.88 31.43 184.97 C 31.76 188.14 32.87 191.61 35.90 193.17 C 40.45 195.54 46.02 194.33 49.72 190.97 C 50.23 191.43 51.27 192.35 51.79 192.80 C 46.33 199.52 34.06 198.98 29.83 191.22 C 27.44 186.47 27.44 180.13 30.71 175.80 M 31.55 182.03 C 38.08 182.08 44.62 182.19 51.16 181.96 C 50.38 179.60 49.51 177.07 47.35 175.61 C 41.70 171.51 32.13 174.52 31.55 182.03 Z" />
<path fill="#ffffff" opacity="1.00" d=" M 90.92 173.96 C 95.32 170.16 102.27 169.94 107.21 172.78 C 111.05 174.94 113.07 179.45 112.97 183.74 C 112.35 185.34 110.36 185.00 109.01 185.21 C 102.62 185.28 96.23 185.27 89.85 185.18 C 90.53 188.04 91.38 191.23 94.08 192.86 C 98.40 195.50 104.46 194.74 107.95 191.03 C 108.54 191.37 109.71 192.05 110.30 192.39 C 105.20 200.39 90.71 198.63 87.67 189.56 C 86.02 184.34 86.51 177.72 90.92 173.96 M 90.20 181.29 C 96.50 182.28 102.95 181.50 109.31 181.72 C 109.24 178.35 106.76 175.46 103.64 174.40 C 98.19 172.33 91.35 175.29 90.20 181.29 Z" />
<path fill="#ffffff" opacity="1.00" d=" M 157.32 171.40 C 161.50 170.41 166.05 170.87 169.77 173.13 C 176.69 178.51 176.56 191.19 168.69 195.68 C 163.99 198.23 157.56 198.13 153.29 194.76 C 145.49 188.86 147.40 173.95 157.32 171.40 M 158.28 174.27 C 151.56 176.12 150.21 185.12 153.48 190.44 C 156.15 194.66 162.14 195.26 166.41 193.42 C 171.79 190.91 172.52 183.52 170.29 178.63 C 168.19 174.28 162.63 173.01 158.28 174.27 Z" />
<path fill="#ffffff" opacity="1.00" d=" M 118.98 171.86 C 120.37 171.81 122.51 170.98 122.93 172.99 C 125.73 179.43 128.31 185.97 131.23 192.36 C 134.35 185.56 137.08 178.58 140.05 171.71 C 140.88 171.71 142.55 171.70 143.38 171.69 C 140.08 180.17 136.45 188.54 132.69 196.83 C 131.28 196.70 129.34 196.78 128.85 195.08 C 125.48 187.37 122.24 179.61 118.98 171.86 Z" />
</g>
</svg>
